<?xml version="1.0" encoding="UTF-8" standalone="no"?>
<!-- Created with Inkscape (http://www.inkscape.org/) -->

<svg
   xmlns:dc="http://purl.org/dc/elements/1.1/"
   xmlns:cc="http://creativecommons.org/ns#"
   xmlns:rdf="http://www.w3.org/1999/02/22-rdf-syntax-ns#"
   xmlns:svg="http://www.w3.org/2000/svg"
   xmlns="http://www.w3.org/2000/svg"
   xmlns:sodipodi="http://sodipodi.sourceforge.net/DTD/sodipodi-0.dtd"
   xmlns:inkscape="http://www.inkscape.org/namespaces/inkscape"
   width="203.27991"
   height="206.78661"
   id="svg2"
   version="1.1"
   inkscape:version="0.47 r22583"
   sodipodi:docname="New document 1">
  <defs
     id="defs4">
    <inkscape:perspective
       sodipodi:type="inkscape:persp3d"
       inkscape:vp_x="0 : 526.18109 : 1"
       inkscape:vp_y="0 : 1000 : 0"
       inkscape:vp_z="744.09448 : 526.18109 : 1"
       inkscape:persp3d-origin="372.04724 : 350.78739 : 1"
       id="perspective10" />
    <inkscape:perspective
       id="perspective2938"
       inkscape:persp3d-origin="0.5 : 0.33333333 : 1"
       inkscape:vp_z="1 : 0.5 : 1"
       inkscape:vp_y="0 : 1000 : 0"
       inkscape:vp_x="0 : 0.5 : 1"
       sodipodi:type="inkscape:persp3d" />
  </defs>
  <sodipodi:namedview
     id="base"
     pagecolor="#ffffff"
     bordercolor="#666666"
     borderopacity="1.0"
     inkscape:pageopacity="0.0"
     inkscape:pageshadow="2"
     inkscape:zoom="1.4"
     inkscape:cx="270.08379"
     inkscape:cy="97.899341"
     inkscape:document-units="px"
     inkscape:current-layer="layer1"
     showgrid="false"
     inkscape:window-width="1366"
     inkscape:window-height="692"
     inkscape:window-x="1280"
     inkscape:window-y="282"
     inkscape:window-maximized="1" />
  <metadata
     id="metadata7">
    <rdf:RDF>
      <cc:Work
         rdf:about="">
        <dc:format>image/svg+xml</dc:format>
        <dc:type
           rdf:resource="http://purl.org/dc/dcmitype/StillImage" />
        <dc:title></dc:title>
      </cc:Work>
    </rdf:RDF>
  </metadata>
  <g
     inkscape:label="Layer 1"
     inkscape:groupmode="layer"
     id="layer1"
     transform="translate(-431.40405,-306.60428)">
    <path
       style="fill:#333333;fill-opacity:1"
       d="m 525.01003,508.91391 -7.7243,-4.47697 0,-8.34245 0,-8.34246 -36.75,-34.45523 c -20.2125,-18.95038 -38.55,-36.0587 -40.75,-38.01849 -3.4373,-3.06201 -4.3349,-4.78199 -6.3809,-12.22694 -4.6116,-16.78104 -1.1531,-36.01048 9.3608,-52.04633 5.0866,-7.75819 17.29,-19.98607 25.4012,-25.45233 33.262,-22.41562 80.6984,-25.21755 117.50884,-6.94091 39.0593,19.39321 58.7131,59.74628 44.2694,90.89324 -0.6376,1.375 -3.833,4.975 -7.1009,8 -27.122,25.10656 -40.5641,37.62126 -56.26434,52.38272 l -18.2059,17.11728 -0.044,8.65498 -0.044,8.65498 -4.75,2.72664 c -2.6125,1.49966 -6.1115,3.54173 -7.7756,4.53795 l -3.0257,1.81129 -7.7243,-4.47697 -3e-4,0 z m 11.2757,-1.40887 c 0,-0.55 0.7194,-1 1.5988,-1 0.8793,0 2.9043,-1.39759 4.5,-3.10576 2.3833,-2.55141 2.9012,-3.97932 2.9012,-8 0,-2.69183 -0.2766,-4.89424 -0.6147,-4.89424 -0.3381,0 -2.8131,1.19652 -5.5,2.65893 l -4.8853,2.65893 0,6.34107 c 0,3.56071 0.4384,6.34107 1,6.34107 0.55,0 1,-0.45 1,-1 z m -5,-7.30073 c 0,-4.10661 -0.2031,-4.39942 -4.5,-6.48701 l -4.5,-2.18627 0,3.05275 c 0,5.16076 3.1841,9.82294 6.75,9.88322 1.9904,0.0337 2.25,-0.45807 2.25,-4.26269 z m 0,-13.25595 0,-5.55668 -4.2408,2.52887 c -2.3324,1.39087 -4.3641,2.89908 -4.5149,3.35157 -0.2631,0.78916 6.4571,5.16252 8.0057,5.20995 0.4125,0.0126 0.75,-2.47754 0.75,-5.53371 z m 8.1916,2.93569 4.152,-2.62099 -3.9218,-2.37389 c -2.157,-1.30563 -4.2593,-2.37619 -4.6718,-2.37901 -0.4125,-0.003 -0.75,2.24488 -0.75,4.99488 0,2.75 0.2339,5 0.5198,5 0.286,0 2.3883,-1.17945 4.6718,-2.62099 z m -14.2633,-7.99589 6.0717,-3.61687 0,-18.76293 0,-18.76294 -5.75,-0.60308 c -3.1625,-0.33169 -7.4852,-0.89058 -9.6061,-1.24197 -3.7047,-0.61384 -3.8268,-0.54585 -3.1127,1.73288 1.5738,5.02206 1.5318,5.26577 -0.3354,1.94806 -2.2181,-3.94119 -7.591,-6.03619 -15.5446,-6.06109 l -4.8488,-0.0152 2.127,3.75 2.127,3.75 -3.7782,-4.26548 c -3.451,-3.8961 -4.1885,-4.26414 -8.5158,-4.25 -4.2654,0.0139 -5.5997,-0.62201 -13.3879,-6.38092 -8.5215,-6.30108 -26.8383,-16.47319 -27.8469,-15.46457 -0.2844,0.28437 13.9931,14.20529 31.7277,30.93537 17.7346,16.73009 34.7197,32.7734 37.7447,35.65182 3.025,2.87841 5.8052,5.24254 6.1783,5.25363 0.3731,0.0111 3.4106,-1.60744 6.75,-3.59673 l 0,2e-5 z m 42.7744,-16.05474 c 31.54914,-29.84146 42.48174,-40.7669 41.21594,-41.18883 -0.6324,-0.21082 -1.4354,0.009 -1.7843,0.48857 -0.3489,0.47953 -1.6468,1.43438 -2.8843,2.12188 -1.2375,0.6875 -3.2625,1.8125 -4.5,2.5 -1.2375,0.6875 -2.475,1.47572 -2.75,1.75159 -1.8253,1.83109 -10.4393,4.71596 -15.991,5.35544 -3.7181,0.42827 -5.154,1.25955 -8.3435,4.83014 -2.56834,2.87519 -3.20934,3.31281 -1.92304,1.31283 1.06124,-1.65 2.21254,-3.4939 2.55834,-4.09755 0.4413,-0.77025 -1.6719,-0.9779 -7.08604,-0.69631 -11.0984,0.57723 -11.9466,0.88012 -14.1672,5.05885 l -1.9847,3.73501 0.622,-3.39252 0.6221,-3.39251 -8.4035,0.73063 c -4.6219,0.40185 -8.6285,0.95302 -8.9035,1.22481 -0.275,0.2718 -0.6512,8.44465 -0.8361,18.16188 l -0.336,17.66771 6.336,3.70152 c 3.4849,2.03584 6.6523,3.72334 7.0388,3.75 0.3865,0.0267 10.0615,-8.80375 21.5,-19.62314 z"
       id="path2944"
       sodipodi:nodetypes="cccccsssssssccccccccccsssscccscccccsccccssccccsssccccccssscccccsssssscccsssssssssscccccscccsc" />
  </g>
</svg>
