<?xml version="1.0" encoding="UTF-8" standalone="no"?>
<!-- Created with Inkscape (http://www.inkscape.org/) -->

<svg
   xmlns:dc="http://purl.org/dc/elements/1.1/"
   xmlns:cc="http://creativecommons.org/ns#"
   xmlns:rdf="http://www.w3.org/1999/02/22-rdf-syntax-ns#"
   xmlns:svg="http://www.w3.org/2000/svg"
   xmlns="http://www.w3.org/2000/svg"
   xmlns:sodipodi="http://sodipodi.sourceforge.net/DTD/sodipodi-0.dtd"
   xmlns:inkscape="http://www.inkscape.org/namespaces/inkscape"
   width="1632.14"
   height="224.63904"
   id="svg2816"
   version="1.1"
   inkscape:version="0.47 r22583"
   sodipodi:docname="New document 1">
  <defs
     id="defs2818">
    <inkscape:perspective
       sodipodi:type="inkscape:persp3d"
       inkscape:vp_x="0 : 526.18109 : 1"
       inkscape:vp_y="0 : 1000 : 0"
       inkscape:vp_z="744.09448 : 526.18109 : 1"
       inkscape:persp3d-origin="372.04724 : 350.78739 : 1"
       id="perspective2824" />
    <inkscape:perspective
       id="perspective3616"
       inkscape:persp3d-origin="0.5 : 0.33333333 : 1"
       inkscape:vp_z="1 : 0.5 : 1"
       inkscape:vp_y="0 : 1000 : 0"
       inkscape:vp_x="0 : 0.5 : 1"
       sodipodi:type="inkscape:persp3d" />
    <inkscape:perspective
       id="perspective3638"
       inkscape:persp3d-origin="0.5 : 0.33333333 : 1"
       inkscape:vp_z="1 : 0.5 : 1"
       inkscape:vp_y="0 : 1000 : 0"
       inkscape:vp_x="0 : 0.5 : 1"
       sodipodi:type="inkscape:persp3d" />
    <inkscape:perspective
       id="perspective3669"
       inkscape:persp3d-origin="0.5 : 0.33333333 : 1"
       inkscape:vp_z="1 : 0.5 : 1"
       inkscape:vp_y="0 : 1000 : 0"
       inkscape:vp_x="0 : 0.5 : 1"
       sodipodi:type="inkscape:persp3d" />
  </defs>
  <sodipodi:namedview
     id="base"
     pagecolor="#ffffff"
     bordercolor="#666666"
     borderopacity="1.0"
     inkscape:pageopacity="0.0"
     inkscape:pageshadow="2"
     inkscape:zoom="1"
     inkscape:cx="635.3856"
     inkscape:cy="46.345443"
     inkscape:document-units="px"
     inkscape:current-layer="g3675"
     showgrid="false"
     inkscape:window-width="1366"
     inkscape:window-height="692"
     inkscape:window-x="1280"
     inkscape:window-y="282"
     inkscape:window-maximized="1" />
  <metadata
     id="metadata2821">
    <rdf:RDF>
      <cc:Work
         rdf:about="">
        <dc:format>image/svg+xml</dc:format>
        <dc:type
           rdf:resource="http://purl.org/dc/dcmitype/StillImage" />
        <dc:title></dc:title>
      </cc:Work>
    </rdf:RDF>
  </metadata>
  <g
     inkscape:label="Layer 1"
     inkscape:groupmode="layer"
     id="layer1"
     transform="translate(555.38064,-76.919045)">
    <g
       id="g3675"
       transform="translate(228,-148)">
      <path
         style="fill:#242223"
         d="m -684.71445,448.8311 c -25.21094,-3.17367 -47.92859,-14.32948 -65.86991,-32.34632 -16.97117,-17.0426 -27.38283,-36.74119 -31.51342,-59.6226 -1.91511,-10.60874 -1.646,-31.5452 0.53985,-42 4.69243,-22.44364 15.26488,-41.8426 31.5997,-57.98103 29.98374,-29.62323 74.47832,-39.61666 115.41913,-25.92298 28.61507,9.57103 54.0903,33.0556 66.21978,61.04532 13.05355,30.12207 12.17372,66.33839 -2.31089,95.12272 -10.11118,20.0933 -27.7317,38.32795 -47.50114,49.15673 -18.77179,10.28231 -45.12694,15.24917 -66.5831,12.54816 z M -646.5,432.97353 c 8.80747,-2.33627 23.93195,-9.2484 31.24304,-14.27856 13.14766,-9.04583 27.51501,-26.27481 34.14315,-40.94364 6.86147,-15.18521 10.06242,-34.72833 8.23125,-50.25511 -5.25464,-44.55485 -36.37464,-78.43657 -80.61744,-87.77177 -3.3,-0.6963 -11.85,-1.22564 -19,-1.17631 -26.35326,0.18182 -47.697,8.98535 -67.32809,27.77043 -13.3316,12.75706 -21.89173,27.18415 -27.3882,46.15958 -1.99692,6.89393 -2.27506,10.01894 -2.21479,24.88403 0.0817,20.16096 1.60169,27.12758 9.41173,43.13796 13.67899,28.04159 38.47037,47.1247 70.01935,53.89725 9.70366,2.08306 33.17573,1.31476 43.5,-1.42386 z m -47,-25.21975 c -4.4,-1.07998 -11.68561,-3.74725 -16.19025,-5.92726 -8.49914,-4.11314 -21.81738,-14.05976 -25.21551,-18.83199 l -1.95397,-2.7441 3.37643,-2.69413 c 1.85705,-1.48176 3.63403,-2.69412 3.94885,-2.69412 0.31482,0 3.05928,2.3625 6.09879,5.25 14.09826,13.39317 30.56399,20.07589 49.43566,20.06376 16.12452,-0.0104 30.74382,-5.03579 44.11376,-15.16425 12.05287,-9.13071 22.09105,-24.74248 25.59497,-39.80634 l 1.66472,-7.15683 3.56327,0.49209 c 5.87609,0.81147 6.07507,0.97674 5.45865,4.53351 -5.38526,31.07307 -30.26747,57.27422 -61.50187,64.76191 -11.14747,2.67233 -27.31196,2.6377 -38.3935,-0.0823 z m -30.8807,-84.88227 c -9.20837,-2.89697 -13.68484,-15.20936 -8.3693,-23.0195 3.80188,-5.58612 7.22423,-7.49644 13.32344,-7.43698 15.49274,0.15103 21.1519,19.34321 8.42656,28.57739 -3.04011,2.20606 -9.47082,3.10915 -13.3807,1.87909 z m 71.65575,-21.01985 c -5.11734,-1.15302 -8.30681,-3.80705 -10.48051,-8.72105 -3.35214,-7.57806 -1.38987,-14.49498 5.59058,-19.70664 2.05333,-1.53303 4.26266,-2.06179 8.61488,-2.06179 9.44843,0 15.43171,5.7316 15.42428,14.7755 -0.009,10.85646 -8.77642,18.05114 -19.14923,15.71398 z m 518.41366,142.94987 c -25.48165,-2.26086 -45.59328,-14.94418 -55.40246,-34.93935 -5.03352,-10.26037 -7.14711,-18.16729 -8.20369,-30.68982 -2.33803,-27.71034 5.94162,-52.53118 23.31947,-69.90739 6.37848,-6.37788 9.90283,-8.97792 16.59797,-12.24489 12.7936,-6.2428 19.12672,-7.59832 35.5,-7.59832 16.32328,0 22.74494,1.36522 35.25034,7.49413 14.43441,7.07432 25.06831,19.60932 31.62665,37.28081 2.82775,7.61937 3.03352,9.1018 3.07672,22.16548 0.0255,7.7 -0.29978,15.2375 -0.72276,16.75 l -0.76905,2.75 -54.35851,0 c -47.2183,0 -54.52284,0.19801 -55.60958,1.50746 -1.74732,2.10539 0.32285,12.19589 3.99424,19.46887 3.11031,6.16148 10.6326,13.76917 16.65001,16.83902 8.42894,4.30013 14.90157,5.44727 27.76552,4.92089 13.55046,-0.55447 19.40511,-2.04466 27.73127,-7.05848 l 5.63485,-3.39317 5.61515,11.28496 c 3.08833,6.20674 5.61515,11.70501 5.61515,12.21839 0,1.67308 -11.34658,7.03142 -20.52689,9.69367 -7.15789,2.07576 -30.32645,5.09097 -33.47311,4.35627 -0.275,-0.0642 -4.46508,-0.46855 -9.31129,-0.89853 z m 49.27984,-93.40145 c 0.92902,-1.1194 0.9522,-2.68021 0.0989,-6.65902 -2.64578,-12.33686 -9.0644,-20.78955 -19.31996,-25.44249 -8.97913,-4.07382 -22.7492,-4.65127 -32.92114,-1.38055 -8.95735,2.88017 -17.95801,10.7913 -22.24995,19.5566 -3.41335,6.97096 -4.47764,13.20326 -2.47164,14.47346 0.76739,0.48591 18.10265,0.89037 38.52281,0.89879 31.36779,0.0129 37.3158,-0.21151 38.34099,-1.44679 z M 201.7536,444.3498 c -36.0323,-6.83084 -54.3582,-34.58153 -52.478,-79.46714 1.3507,-32.24699 15.1648,-55.60067 40.2385,-68.02605 18.0118,-8.92578 35.8194,-10.29409 53.9503,-4.14543 6.5307,2.21475 9.3134,2.7504 10.25,1.97309 C 254.7092,293.8586 255,286.8789 255,263.82335 l 0,-29.79395 14.9236,-3.58361 c 8.208,-1.97099 15.408,-3.58361 16,-3.58361 0.7619,0 1.0764,31.41466 1.0764,107.5 l 0,107.5 -16,0 -16,0 0,-3.03138 c 0,-4.56251 -2.3591,-4.73222 -9.862,-0.70944 -3.6509,1.9575 -9.113,4.28949 -12.138,5.18219 -7.9084,2.33385 -21.9706,2.8047 -31.2464,1.04625 z m 33.4472,-25.612 c 6.304,-1.33758 14.1291,-5.11461 17.4255,-8.41101 l 2.3737,-2.3737 0,-41.04546 c 0,-47.09659 0.9093,-42.80866 -10.191,-48.05824 -19.9539,-9.43673 -46.9915,-0.0912 -56.2292,19.43562 -3.9817,8.41667 -5.8067,17.8079 -5.8449,30.07717 -0.036,11.44171 0.8174,16.55555 4.3253,25.93135 2.7149,7.25628 10.5827,15.85741 17.8517,19.51552 4.8468,2.4392 7.815,3.30584 18.5881,5.42729 3.7527,0.73898 6.3999,0.62619 11.7008,-0.49854 z M 353.5,444.87413 c -12.3175,-1.13178 -28.7426,-5.95856 -33.5652,-9.86367 l -2.1472,-1.73869 5.2167,-11.4548 c 2.8691,-6.30013 5.3064,-11.55673 5.416,-11.68133 0.1097,-0.12459 4.2225,1.79133 9.1396,4.25762 13.8477,6.94567 30.0833,8.37441 40.882,3.59763 5.5047,-2.43497 7.7891,-5.86868 8.3423,-12.53939 1.0301,-12.42283 -10.2478,-23.69577 -30.7701,-30.75649 -14.0392,-4.8302 -31.5767,-19.26707 -36.519,-30.06253 -4.5122,-9.85601 -4.2296,-23.43121 0.6895,-33.11551 4.6233,-9.10182 16.16,-17.04202 29.5654,-20.34846 13.9985,-3.45272 37.8564,-1.79287 52.3902,3.64492 9.6295,3.60286 9.4456,3.04486 4.9155,14.91568 -2.1759,5.70181 -4.1943,10.60496 -4.4852,10.89589 -0.2909,0.29092 -3.1509,-0.64769 -6.3554,-2.08582 -8.2372,-3.69663 -15.0272,-4.92382 -25.0312,-4.52403 -13.1763,0.52656 -19.6908,4.75211 -20.8691,13.53637 -0.3767,2.80883 0.07,5.39303 1.4873,8.59611 2.6634,6.02114 8.2872,9.67608 28.1979,18.32603 18.1244,7.87391 24.1274,11.55917 30.9002,18.96974 10.6337,11.63488 13.0192,30.80676 5.776,46.41878 -3.0549,6.58441 -12.0073,15.10707 -19.6762,18.73155 -11.2835,5.33283 -27.8235,7.72083 -43.5,6.2804 z m 140.59,-0.46558 C 480.4208,441.8083 469.2961,434.24334 464.0663,423.99209 459.2956,414.64071 459,411.20424 459,365.08634 c 0,-27.9738 -0.3673,-44.04189 -1.0352,-45.2899 -0.8904,-1.6638 -2.1489,-1.93426 -9,-1.93426 l -7.9648,0 0,-13 0,-13 7.8776,0 c 5.3018,0 8.2354,-0.43127 8.9722,-1.319 0.6547,-0.78885 1.2063,-7.32032 1.3724,-16.25 l 0.2778,-14.931 15.5,-5.65761 15.5,-5.6576 0.2708,20.58022 c 0.1727,13.12509 0.6699,21.06106 1.3725,21.90761 0.8496,1.02371 5.7635,1.32738 21.4791,1.32738 l 20.3776,0 0,13 0,13 -20.3776,0 c -16.4311,0 -20.6069,0.27639 -21.5619,1.42715 -0.8811,1.0616 -1.1046,11.7551 -0.8725,41.75 0.2991,38.65503 0.3999,40.51289 2.437,44.91748 4.2639,9.21903 10.7574,12.86695 22.875,12.85076 7.2656,-0.01 12.1369,-1.09488 19.75,-4.3997 1.6211,-0.70371 1.75,0.30738 1.75,13.72576 l 0,14.48543 -7.3673,1.09575 c -12.9527,1.92647 -28.5099,2.22181 -36.5427,0.69374 z m 129.0198,0.37297 c -29.1991,-2.81796 -50.7383,-19.22705 -58.9629,-44.91934 -6.3171,-19.73383 -5.3816,-47.25642 2.2416,-65.94333 7.7197,-18.92346 23.7058,-34.08321 42.6211,-40.41794 25.2891,-8.4693 52.7209,-4.37389 72.8482,10.87582 7.8531,5.95001 13.4291,12.85042 17.7657,21.98545 5.4068,11.38969 6.6685,18.06397 6.1363,32.46028 -0.255,6.89685 -0.8034,13.32722 -1.2187,14.28972 -0.7057,1.63564 -4.2723,1.75 -54.5767,1.75 -60.3872,0 -57.7653,-0.32038 -56.4988,6.90386 1.4015,7.99418 3.7191,14.1651 7.2819,19.38868 5.8892,8.63437 12.8209,13.44281 23.4619,16.27539 6.8902,1.83414 22.6204,1.79629 30.5509,-0.0735 6.3064,-1.48688 17.5537,-6.57545 18.7259,-8.47205 1.4006,-2.26627 2.7671,-0.53563 8.2089,10.3967 6.4763,13.01049 6.485,12.93576 -2.0146,17.2428 -13.5539,6.8683 -36.4043,10.2037 -56.5707,8.25746 z m 49.9191,-93.45415 c 2.4619,-2.96637 -2.526,-17.35895 -8.5289,-24.61027 -10.2244,-12.35077 -31.1027,-15.39411 -48.3185,-7.04317 -7.5464,3.66054 -16.1655,13.18167 -19.5212,21.56401 -1.4632,3.6549 -2.6603,7.22555 -2.6603,7.93476 0,3.52474 1.7895,3.68948 40.0776,3.68948 32.651,0 37.8474,-0.20476 38.9513,-1.53481 z M -502,381.06218 c 0,-45.95556 -0.29298,-61.09298 -1.2,-62 -0.77007,-0.77007 -4.71111,-1.2 -11,-1.2 l -9.8,0 0,-12.96502 0,-12.96501 10.14368,-0.28499 c 7.80092,-0.21916 10.32052,-0.63142 10.90932,-1.78498 0.4211,-0.825 1.64236,-6.24695 2.71392,-12.04878 2.54499,-13.77956 7.85312,-25.27171 15.47291,-33.49904 9.80324,-10.58486 20.67655,-14.86295 37.76017,-14.85668 9.52507,0.003 24.68065,2.35303 27.86238,4.31945 0.73361,0.45339 -0.25811,4.27685 -3.01662,11.63025 -2.26023,6.02514 -4.44422,11.32635 -4.8533,11.78046 -0.40908,0.45412 -3.13142,0.11662 -6.04963,-0.75 -6.03856,-1.79326 -13.77798,-2.027 -19.00818,-0.57406 -8.65517,2.40437 -15.91903,13.01547 -18.15758,26.52472 -1.57356,9.4961 -1.61225,9.47368 16.34537,9.47368 l 14.87756,0 0,13 0,13 -14.3,0 c -9.78889,0 -14.67855,0.37855 -15.5,1.2 -0.90702,0.90702 -1.2,16.04444 -1.2,62 l 0,60.8 -16,0 -16,0 0,-60.8 z m 101,-14.2 0,-75 15.9501,0 15.95009,0 0.29991,5.74028 c 0.36521,6.99028 1.98884,7.75392 6.84371,3.21879 4.2071,-3.93001 12.79692,-8.26489 19.95619,-10.07093 11.44039,-2.88603 40,-0.63327 40,3.15517 0,0.76787 -11.5807,24.70849 -12.42351,25.68296 -0.10763,0.12445 -2.59686,-0.6861 -5.5316,-1.80121 -2.93475,-1.11512 -8.16386,-2.29156 -11.62024,-2.61433 -15.07348,-1.40758 -29.02995,8.65312 -35.0638,25.27618 -2.35659,6.49234 -2.36085,6.58961 -2.36085,53.95858 l 0,47.45451 -16,0 -16,0 0,-75 z m 136,14.93426 c 0,-39.49249 -0.35456,-60.72825 -1.03518,-62 -0.90528,-1.69152 -2.16021,-1.93426 -10,-1.93426 l -8.96482,0 0,-13 0,-13 26,0 26,0 0,75 0,75 -16,0 -16,0 0,-60.06574 z m 247,-14.93426 0,-75 11.25,0.0269 11.25,0.0269 2.89155,6.47311 c 3.40897,7.63143 4.91911,8.07498 10.68606,3.13868 16.76761,-14.35245 48.63955,-16.6264 68.92239,-4.91738 7.27356,4.19894 15.47318,13.31277 19.48891,21.66183 6.27446,13.04513 6.47439,15.27241 6.49373,72.33999 l 0.0174,51.24997 -16,0 -16,0 -0.008,-46.25 C 80.98804,368.29479 80.55712,346.72823 79.9405,342.92776 77.14553,325.70141 67.67911,316.55575 51.21783,315.17833 39.17392,314.17054 27.68119,318.41007 18.43152,327.27281 L 14,331.51935 l 0,55.17141 0,55.17142 -16,0 -16,0 0,-75 z m 758,0 0,-75 15.5,0 15.5,0 0,4.56574 c 0,4.5874 1.334,8.43426 2.9248,8.43426 0.4699,0 2.5916,-1.56124 4.7148,-3.46942 5.1443,-4.62332 13.6921,-9.12146 20.902,-10.99939 10.9343,-2.84804 35.1071,-1.2747 38.9213,2.53328 0.6169,0.61588 -1.3485,5.62812 -5.4693,13.94843 -3.5377,7.1429 -6.5035,12.9871 -6.5908,12.9871 -0.087,0 -1.7097,-0.6481 -3.6055,-1.44022 -1.8958,-0.79212 -6.4039,-1.95515 -10.0179,-2.58451 -15.4149,-2.68439 -29.3995,5.56201 -37.1412,21.90135 l -3.1382,6.62338 -0.2861,48.75 -0.2861,48.75 -15.9639,0 -15.9639,0 0,-75 z m 67.3162,70.75 c -3.8855,-4.10497 -5.0442,-6.38313 -6.3547,-12.49393 -1.8767,-8.75077 2.1734,-19.60271 8.8916,-23.82451 2.1729,-1.36547 2.0555,-1.10687 -0.6556,1.44415 -9.1466,8.60642 -9.8202,24.36373 -1.459,34.13187 4.1163,4.80898 3.8574,5.26404 -0.4223,0.74242 z m 37.8765,-6 c 3.3538,-6.38227 3.166,-15.64138 -0.4624,-22.79178 -2.031,-4.00258 -2.2302,-4.7915 -0.7469,-2.95822 3.0316,3.74673 5.3502,12.54939 4.6504,17.65507 -0.5535,4.03789 -4.0354,12.34493 -5.1744,12.34493 -0.275,0 0.505,-1.9125 1.7333,-4.25 z M 817,421.02885 c 0,-7.24167 0.3375,-13.16707 0.75,-13.16755 0.833,-9.7e-4 0.6195,24.96472 -0.2207,25.8049 C 817.2382,433.95732 817,428.27051 817,421.02885 z m 14.5614,9.30894 c -0.3733,-1.9897 -0.9538,-4.3345 -1.29,-5.21067 -0.3829,-0.99797 -0.2068,-1.34302 0.4716,-0.92374 1.1435,0.70667 2.7947,8.45442 1.9763,9.27281 -0.2636,0.26359 -0.7846,-1.14869 -1.1579,-3.1384 z M 826.5,421.86218 c -0.3399,-0.55 0.083,-1 0.941,-1 0.8574,0 1.559,0.45 1.559,1 0,0.55 -0.4234,1 -0.941,1 -0.5175,0 -1.2191,-0.45 -1.559,-1 z m 5.6498,-6.81574 c -0.082,-1.27366 -0.6524,-3.29866 -1.2666,-4.5 -1.0393,-2.03266 -0.9991,-2.07216 0.5794,-0.56911 1.0946,1.0422 1.5439,2.6385 1.2667,4.5 -0.3423,2.29862 -0.4601,2.41427 -0.5795,0.56911 z M -257.5,267.98515 c -9.35327,-5.82881 -12.73551,-14.83687 -8.96186,-23.86849 1.9848,-4.7503 4.08929,-7.02196 8.67202,-9.36089 4.42456,-2.2582 12.72858,-2.49991 16.5895,-0.48287 5.87249,3.06794 11.20034,11.19707 11.20034,17.08928 0,5.89221 -5.32785,14.02134 -11.20034,17.08928 -3.92239,2.04915 -12.66453,1.79905 -16.29966,-0.46631 z"
         id="path3677" />
    </g>
  </g>
</svg>
