<?xml version="1.0" encoding="UTF-8" standalone="no"?>
<!-- Created with Inkscape (http://www.inkscape.org/) -->

<svg
   xmlns:dc="http://purl.org/dc/elements/1.1/"
   xmlns:cc="http://creativecommons.org/ns#"
   xmlns:rdf="http://www.w3.org/1999/02/22-rdf-syntax-ns#"
   xmlns:svg="http://www.w3.org/2000/svg"
   xmlns="http://www.w3.org/2000/svg"
   xmlns:sodipodi="http://sodipodi.sourceforge.net/DTD/sodipodi-0.dtd"
   xmlns:inkscape="http://www.inkscape.org/namespaces/inkscape"
   width="399.29553"
   height="84.073692"
   id="svg3602"
   version="1.1"
   inkscape:version="0.47 r22583"
   sodipodi:docname="New document 3">
  <defs
     id="defs3604">
    <inkscape:perspective
       sodipodi:type="inkscape:persp3d"
       inkscape:vp_x="0 : 526.18109 : 1"
       inkscape:vp_y="0 : 1000 : 0"
       inkscape:vp_z="744.09448 : 526.18109 : 1"
       inkscape:persp3d-origin="372.04724 : 350.78739 : 1"
       id="perspective3610" />
    <inkscape:perspective
       id="perspective3620"
       inkscape:persp3d-origin="0.5 : 0.33333333 : 1"
       inkscape:vp_z="1 : 0.5 : 1"
       inkscape:vp_y="0 : 1000 : 0"
       inkscape:vp_x="0 : 0.5 : 1"
       sodipodi:type="inkscape:persp3d" />
  </defs>
  <sodipodi:namedview
     id="base"
     pagecolor="#ffffff"
     bordercolor="#666666"
     borderopacity="1.0"
     inkscape:pageopacity="0.0"
     inkscape:pageshadow="2"
     inkscape:zoom="0.98994949"
     inkscape:cx="234.56467"
     inkscape:cy="23.426189"
     inkscape:document-units="px"
     inkscape:current-layer="layer1"
     showgrid="false"
     inkscape:window-width="1366"
     inkscape:window-height="692"
     inkscape:window-x="1280"
     inkscape:window-y="282"
     inkscape:window-maximized="1" />
  <metadata
     id="metadata3607">
    <rdf:RDF>
      <cc:Work
         rdf:about="">
        <dc:format>image/svg+xml</dc:format>
        <dc:type
           rdf:resource="http://purl.org/dc/dcmitype/StillImage" />
        <dc:title></dc:title>
      </cc:Work>
    </rdf:RDF>
  </metadata>
  <g
     inkscape:label="Layer 1"
     inkscape:groupmode="layer"
     id="layer1"
     transform="translate(-53.251258,-417.4821)">
    <path
       style="fill:#02a353;fill-opacity:1"
       d="m 57.436235,499.6513 c -2.178098,-1.36321 -3.390711,-3.05022 -3.808018,-5.29781 -0.336753,-1.81374 -0.47367,-18.25059 -0.304261,-36.52634 l 0.308018,-33.22864 2.632298,-2.63093 c 2.986333,-2.98478 9.717345,-4.22392 13.984089,-2.57439 2.632575,1.01776 12.836696,12.66783 35.901669,40.98904 l 12.48195,15.32644 0.5,-26.54269 c 0.5642,-29.95113 0.42941,-29.45341 8.21395,-30.33084 3.70265,-0.41734 4.89614,-0.0887 7.35307,2.02497 l 2.93298,2.52318 0,36.06385 0,36.06384 -2.77467,2.77241 c -2.36253,2.3606 -3.57274,2.76483 -8.14763,2.72145 -6.94688,-0.0659 -10.00516,-2.19529 -19.15089,-13.33429 -3.89025,-4.73812 -13.340253,-16.20566 -21.000003,-25.48342 l -13.926813,-16.86865 -0.5,25.59282 c -0.471836,24.15122 -0.616023,25.70873 -2.55978,27.65066 -3.04391,3.04104 -8.268304,3.50999 -12.135959,1.08934 z m 194.924705,1.2352 c -3.45492,-1.39008 -4.22896,-5.92585 -4.22896,-24.78105 l 0,-18.54966 8,0 8,0 0,19.54545 c 0,19.41864 -0.0159,19.56139 -2.45455,22 -2.32383,2.32384 -6.15381,3.05775 -9.31649,1.78526 z m 120.48268,-1.3429 c -6.88811,-5.41818 -4.01778,-12.24912 11.74701,-27.95612 l 11.51051,-11.46832 -12.38019,-12.53168 c -14.22164,-14.39567 -16.13961,-17.9617 -13.10268,-24.36155 1.31856,-2.77866 2.48665,-3.76204 5.03701,-4.24049 6.79501,-1.27475 9.28027,0.18938 22.71879,13.38427 l 12.78683,12.55502 12.2649,-12.12533 c 6.74569,-6.66893 13.51848,-12.60195 15.05064,-13.18447 4.46788,-1.69869 8.33236,-1.24119 11.33544,1.34194 2.24494,1.93102 2.77079,3.18812 2.68601,6.42122 -0.14574,5.55813 -2.57905,9.00146 -15.2862,21.6312 l -11.02064,10.9535 12.38182,12.61043 c 9.72819,9.90781 12.61777,13.48669 13.48276,16.69904 1.89356,7.03212 -1.83092,12.28353 -8.7119,12.28353 -5.02287,0 -6.6627,-1.17828 -19.96175,-14.34338 l -12.25,-12.12661 -12.25,12.18507 c -6.7375,6.70179 -13.51679,12.65754 -15.0651,13.235 -4.29058,1.60022 -8.14533,1.26219 -10.97326,-0.96227 z m -212.25028,-9.23138 c -3.14691,-5.63396 -7.53647,-13.62146 -9.75458,-17.75 -2.2181,-4.12853 -4.63454,-8.39406 -5.36985,-9.47894 -0.73531,-1.08487 -1.32647,-2.65987 -1.31369,-3.5 0.0128,-0.84012 4.68408,-10.07749 10.38065,-20.52749 l 10.3574,-19 24.98378,-0.26689 24.98378,-0.26688 8.63557,14.50559 c 4.74957,7.97808 8.63558,14.73568 8.63558,15.01689 0,0.28121 -4.1625,0.49604 -9.25,0.47741 l -9.25,-0.0339 -4.33229,-7.46611 -4.33229,-7.46612 -14.39437,0 -14.39437,0 -1.82296,3.75 c -1.00263,2.0625 -3.93813,7.62065 -6.52334,12.35143 -2.58521,4.73079 -4.70038,9.09342 -4.70038,9.69474 0,0.60132 2.9849,6.55208 6.6331,13.22392 4.79484,8.7688 7.33407,12.39713 9.16241,13.09226 1.39112,0.52891 7.22949,0.87437 12.97416,0.7677 9.15445,-0.16998 10.68484,-0.45153 12.38732,-2.27893 1.72058,-1.84682 6.84301,-10.251 6.84301,-11.22706 0,-0.20573 -6.09735,-0.37405 -13.54966,-0.37405 -9.93605,0 -14.30418,-0.39018 -16.37882,-1.46301 -4.88239,-2.52479 -5.52041,-7.81538 -1.43516,-11.90063 l 2.63637,-2.63636 27.36363,0 c 15.05,0 27.36364,0.15536 27.36364,0.34525 0,0.51255 -18.87253,35.6253 -21.17941,39.40475 l -1.98371,3.25 -23.82693,0 -23.82693,0 -5.72166,-10.24357 z m 121.43313,9.12945 c -1.43303,-0.52592 -3.12053,-2.08657 -3.75,-3.4681 -1.61149,-3.53683 -1.59828,-69.32771 0.0146,-72.86766 1.33779,-2.93612 6.52743,-4.76281 10.99355,-3.86959 5.61625,1.12325 5.8451,2.3041 5.87051,30.29198 l 0.0232,25.52749 4.22682,-4.52869 c 2.32476,-2.49077 12.10183,-13.93171 21.72683,-25.4243 9.625,-11.49259 18.54358,-21.82969 19.81906,-22.97132 4.51624,-4.04229 13.34821,-3.85161 17.5819,0.37959 2.03485,2.03366 2.10827,3.11387 2.40089,35.32127 0.16601,18.2729 0.0333,34.68483 -0.29485,36.47096 -0.96214,5.23645 -7.97707,7.81796 -13.90494,5.11704 -1.37062,-0.6245 -2.85429,-1.862 -3.29705,-2.75 -0.44275,-0.888 -1.03001,-12.81242 -1.30501,-26.49871 l -0.5,-24.88415 -18,21.84504 c -22.86497,27.74923 -25.30339,30.42575 -29.21788,32.07089 -3.66792,1.54152 -8.57914,1.63598 -12.38763,0.23826 z m -33.89449,-63.43133 c 0,-13.04826 0.0901,-13.63555 2.45455,-16 3.44104,-3.44105 8.68919,-3.35856 11.47287,0.18031 1.86196,2.3671 2.07258,3.99304 2.07258,16 l 0,13.36514 -8,0 -8,0 0,-13.54545 z"
       id="path3658" />
  </g>
</svg>
