<?xml version="1.0" encoding="UTF-8" standalone="no"?>
<!-- Created with Inkscape (http://www.inkscape.org/) -->

<svg
   xmlns:dc="http://purl.org/dc/elements/1.1/"
   xmlns:cc="http://creativecommons.org/ns#"
   xmlns:rdf="http://www.w3.org/1999/02/22-rdf-syntax-ns#"
   xmlns:svg="http://www.w3.org/2000/svg"
   xmlns="http://www.w3.org/2000/svg"
   xmlns:sodipodi="http://sodipodi.sourceforge.net/DTD/sodipodi-0.dtd"
   xmlns:inkscape="http://www.inkscape.org/namespaces/inkscape"
   width="225.49998"
   height="69.830727"
   id="svg4747"
   version="1.1"
   inkscape:version="0.47 r22583"
   sodipodi:docname="uwsgi.svg">
  <defs
     id="defs4749">
    <inkscape:perspective
       sodipodi:type="inkscape:persp3d"
       inkscape:vp_x="0 : 526.18109 : 1"
       inkscape:vp_y="0 : 1000 : 0"
       inkscape:vp_z="744.09448 : 526.18109 : 1"
       inkscape:persp3d-origin="372.04724 : 350.78739 : 1"
       id="perspective4755" />
    <inkscape:perspective
       id="perspective4765"
       inkscape:persp3d-origin="0.5 : 0.33333333 : 1"
       inkscape:vp_z="1 : 0.5 : 1"
       inkscape:vp_y="0 : 1000 : 0"
       inkscape:vp_x="0 : 0.5 : 1"
       sodipodi:type="inkscape:persp3d" />
    <inkscape:perspective
       id="perspective5970"
       inkscape:persp3d-origin="0.5 : 0.33333333 : 1"
       inkscape:vp_z="1 : 0.5 : 1"
       inkscape:vp_y="0 : 1000 : 0"
       inkscape:vp_x="0 : 0.5 : 1"
       sodipodi:type="inkscape:persp3d" />
  </defs>
  <sodipodi:namedview
     id="base"
     pagecolor="#ffffff"
     bordercolor="#666666"
     borderopacity="1.0"
     inkscape:pageopacity="0.0"
     inkscape:pageshadow="2"
     inkscape:zoom="1.4"
     inkscape:cx="112.60589"
     inkscape:cy="95.144856"
     inkscape:document-units="px"
     inkscape:current-layer="layer1"
     showgrid="false"
     showguides="true"
     inkscape:guide-bbox="true"
     inkscape:window-width="1366"
     inkscape:window-height="692"
     inkscape:window-x="1280"
     inkscape:window-y="282"
     inkscape:window-maximized="1" />
  <metadata
     id="metadata4752">
    <rdf:RDF>
      <cc:Work
         rdf:about="">
        <dc:format>image/svg+xml</dc:format>
        <dc:type
           rdf:resource="http://purl.org/dc/dcmitype/StillImage" />
        <dc:title></dc:title>
      </cc:Work>
    </rdf:RDF>
  </metadata>
  <g
     inkscape:label="Layer 1"
     inkscape:groupmode="layer"
     id="layer1"
     transform="translate(-207.59938,-540.72294)">
    <g
       id="g5978" />
    <g
       id="g6533">
      <path
         sodipodi:nodetypes="ccccsssssscccssc"
         id="path5990"
         d="m 214.49997,608.53231 c -5.75935,-3.69042 -6.90059,-8.22887 -6.90059,-27.442 l 0,-17.0383 4.3239,-0.31111 c 7.10318,-0.51108 7.33707,0.055 6.98464,16.90369 -0.28632,13.68806 -0.15723,14.95426 1.79208,17.57897 2.75362,3.7077 9.76565,4.47076 13.4795,1.46687 2.35403,-1.90402 2.42864,-2.40155 2.74193,-18.28336 0.21939,-11.12176 0.69756,-16.5649 1.5,-17.07526 2.03356,-1.29334 8.37848,-0.84556 9.64516,0.68069 0.92491,1.11446 1.01316,6.50462 0.37244,22.75 l -0.83965,21.28951 -3.93261,0.32125 c -2.16293,0.17669 -4.91415,-0.20406 -6.11382,-0.8461 -1.73904,-0.93071 -2.80691,-0.84379 -5.26773,0.42875 -4.45218,2.30231 -13.88163,2.07772 -17.78525,-0.4236 z"
         style="fill:#bad05d;fill-opacity:1" />
      <path
         id="path6508"
         d="m 359.22038,555.03222 c -1.1041,-0.58294 -1.78803,-1.92484 -1.81277,-3.55672 -0.0201,-1.32699 0.25855,-1.92412 1.10134,-2.35994 0.67033,-0.34665 2.26478,-0.53139 3.27661,-0.37966 2.17374,0.32597 3.52014,2.41558 2.74629,4.26224 -0.89007,2.124 -3.35402,3.06759 -5.31147,2.03408 z m 2.47102,-2.41235 c 0.46897,-0.55645 0.52887,-1.48469 0.12207,-1.8915 -1.06679,-1.06678 -2.41253,1.1178 -1.45218,2.35735 0.24477,0.31592 0.84985,0.104 1.33011,-0.46585 z"
         style="fill:#bad05d;fill-opacity:1;fill-rule:nonzero;stroke:none" />
      <path
         id="path5976"
         d="m 265.76962,609.802 c -0.24628,-0.4125 -3.00535,-10.425 -6.13126,-22.25 -3.12591,-11.825 -7.00096,-26.33011 -8.61123,-32.23357 -1.61027,-5.90347 -2.92776,-11.13472 -2.92776,-11.625 0,-0.49029 1.2975,-1.15093 2.88334,-1.4681 1.58583,-0.31716 3.97183,-0.84986 5.30221,-1.18376 2.37515,-0.59613 2.51735,-0.24454 7.86666,19.45009 2.99628,11.03146 5.67279,20.05379 5.94779,20.04963 0.275,-0.004 3.21727,-6.86595 6.53838,-15.24843 5.35166,-13.50755 6.31834,-15.27279 8.5,-15.52166 2.27077,-0.25902 2.80404,0.59381 6.87823,11 6.22395,15.89708 8.07008,20.12744 8.56682,19.6307 0.23825,-0.23825 2.74862,-8.96444 5.57862,-19.39154 2.82999,-10.4271 5.43625,-19.26407 5.79169,-19.63771 0.91358,-0.96035 10.14626,1.3098 10.14626,2.49478 0,0.53816 -3.9034,15.76235 -8.67423,33.83152 -8.55408,32.39799 -8.70991,32.85296 -11.25,32.8469 -2.40459,-0.006 -3.0357,-1.16874 -9.49639,-17.5 -3.80634,-9.62162 -7.18134,-17.49108 -7.5,-17.4877 -0.31866,0.003 -3.69366,7.87838 -7.5,17.5 -6.12767,15.48943 -7.18075,17.49385 -9.19098,17.49385 -1.2487,0 -2.47187,-0.3375 -2.71815,-0.75 z m 68.98494,-0.70865 c -4.71646,-1.68165 -8.25397,-4.87955 -10.7229,-9.69348 -2.08324,-4.06191 -1.94956,-4.28776 4.1731,-7.05064 l 3.60539,-1.62695 1.63169,3.4217 c 2.54483,5.33657 6.9896,7.59349 14.05839,7.13844 4.93196,-0.31749 6.28657,-0.82829 8.25,-3.11091 5.83913,-6.78839 0.45646,-13.91355 -14.79568,-19.58536 -12.67109,-4.712 -18.68375,-12.37429 -17.34551,-22.10442 0.85159,-6.1918 3.86972,-10.67108 8.99033,-13.34274 3.19138,-1.6651 5.81938,-2.08699 13,-2.08699 11.66802,0 15.86219,1.91353 19.72664,9 1.49965,2.75 2.73715,5.24783 2.75,5.55073 0.0128,0.30291 -1.97759,1.52288 -4.42321,2.71105 l -4.44656,2.1603 -2.30787,-4.18372 c -2.67039,-4.84088 -5.74845,-6.70289 -11.11474,-6.72362 -6.85797,-0.0265 -10.60087,3.19452 -10.65246,9.16717 -0.0387,4.48546 2.3994,6.49198 12.51495,10.29947 9.01629,3.39372 15.98564,7.93658 19.01493,12.39458 2.842,4.18238 3.35502,12.99432 1.07429,18.45285 -1.73906,4.16217 -6.65005,8.30326 -11.41702,9.62718 -5.20636,1.44595 -16.98041,1.21955 -21.56376,-0.41464 z m 29.30498,-54.99336 c 1.99747,-2.40681 0.31673,-5.54799 -2.96854,-5.54799 -3.42021,0 -4.39715,1.24814 -3.56672,4.55683 0.70461,2.80738 4.5446,3.38976 6.53526,0.99116 z m -3.96017,-1.98897 c 0,-0.85746 0.45,-1.55902 1,-1.55902 0.55,0 1,0.42344 1,0.94098 0,0.51754 -0.45,1.2191 -1,1.55902 -0.55,0.33992 -1,-0.0835 -1,-0.94098 z m 25.39671,56.60638 c -9.33107,-4.40312 -13.40093,-12.82903 -14.15672,-29.30895 -0.8782,-19.1492 3.67398,-31.59564 13.27993,-36.30961 8.59154,-4.21616 22.22637,-2.62655 27.70444,3.22989 2.49981,2.67248 6.23643,9.13824 5.59938,9.68902 -1.13142,0.97819 -6.95098,3.53425 -8.04668,3.53425 -0.72724,0 -2.12688,-1.4941 -3.11031,-3.32022 -3.65763,-6.79181 -12.02397,-8.77441 -17.51818,-4.15134 -4.86601,4.09448 -6.64391,10.27303 -6.61014,22.97156 0.0348,13.07556 1.4839,18.72233 5.95117,23.1896 3.01378,3.01378 3.84964,3.3104 9.32861,3.3104 9.29539,0 9.18179,0.12504 9.18179,-10.10699 l 0,-8.89301 -4.5,0 -4.5,0 0,-4.5 0,-4.5 10,0 10,0 0,17.39301 c 0,15.62967 -0.17742,17.46445 -1.75,18.09767 -0.9625,0.38756 -7.375,0.90857 -14.25,1.15781 -10.88367,0.39457 -13.03058,0.20279 -16.60329,-1.48309 z m 36.60329,-33.1654 0,-34 5.5,0 5.5,0 0,34 0,34 -5.5,0 -5.5,0 0,-34 z"
         style="fill:#000000" />
    </g>
  </g>
</svg>
